<?xml version="1.0" encoding="UTF-8" standalone="no"?>
<!-- Created with Inkscape (http://www.inkscape.org/) -->

<svg
   xmlns:dc="http://purl.org/dc/elements/1.1/"
   xmlns:cc="http://creativecommons.org/ns#"
   xmlns:rdf="http://www.w3.org/1999/02/22-rdf-syntax-ns#"
   xmlns:svg="http://www.w3.org/2000/svg"
   xmlns="http://www.w3.org/2000/svg"
   xmlns:sodipodi="http://sodipodi.sourceforge.net/DTD/sodipodi-0.dtd"
   xmlns:inkscape="http://www.inkscape.org/namespaces/inkscape"
   width="960"
   height="480"
   id="svg4501"
   version="1.1"
   inkscape:version="0.48.4 r9939"
   sodipodi:docname="New document 6">
  <defs
     id="defs4503" />
  <sodipodi:namedview
     id="base"
     pagecolor="#ffffff"
     bordercolor="#666666"
     borderopacity="1.0"
     inkscape:pageopacity="0.0"
     inkscape:pageshadow="2"
     inkscape:zoom="0.35"
     inkscape:cx="35"
     inkscape:cy="520"
     inkscape:document-units="px"
     inkscape:current-layer="layer1"
     showgrid="false"
     inkscape:window-width="1855"
     inkscape:window-height="1056"
     inkscape:window-x="65"
     inkscape:window-y="24"
     inkscape:window-maximized="1" />
  <metadata
     id="metadata4506">
    <rdf:RDF>
      <cc:Work
         rdf:about="">
        <dc:format>image/svg+xml</dc:format>
        <dc:type
           rdf:resource="http://purl.org/dc/dcmitype/StillImage" />
        <dc:title></dc:title>
      </cc:Work>
    </rdf:RDF>
  </metadata>
  <g
     inkscape:label="Layer 1"
     inkscape:groupmode="layer"
     id="layer1"
     transform="translate(0,-572.36218)">
    <path
       d="m 557.58227,581.36854 c -1.5086,0.009 -4.7211,0.30611 -6.4687,0.9375 l -3.5,1.5 8.6562,35.844 -124.80999,0.28125 c -77.96301,0.1654 -166.52001,-11.504 -232.93001,-9.5 -66.412,2.0037 -152.120004,28 -152.120004,28 l -13.687,3.7812 c -19.251,5.2963 -25.7180004,97.367 -25.7180004,166.78 0,1.113 0.02665,2.2531 0.03125,3.375 -0.0046,1.1219 -0.03125,2.262 -0.03125,3.375 0,69.414 6.4673004,161.48 25.7180004,166.78 l 13.687,3.7812 c 0,0 85.711014,25.99601 152.120004,28.00001 66.412,2.0037 154.97,-9.6654 232.93001,-9.5 l 124.80999,0.2812 -8.6562,35.844 3.5,1.5 c 1.7476,0.6314 4.96,0.9285 6.4687,0.9375 0.84859,0.01 1.7551,-0.074 2.6875,-0.25 0.3107,-0.058 0.62352,-0.1412 0.93749,-0.2187 0.30459,-0.075 0.6326,-0.1569 0.9375,-0.25 0.62843,-0.1927 1.2635,-0.4221 1.875,-0.6875 1.8215,-0.7921 3.5342,-1.9028 4.7812,-3.2812 0.01,-0.011 0.0217,-0.021 0.0312,-0.031 0.6248,-0.6966 1.1123,-1.4528 1.4687,-2.2812 l 12.15599,-31.25 109.94,0.25 c 23.9,11.9419 45.511,10.719 73.593,10.719 133.25,0 187.62998,-86.58601 186.99998,-201.38001 0,-0.7802 -0.019,-1.5656 -0.031,-2.3438 0.012,-0.77811 0.031,-1.5636 0.031,-2.3438 0.6282,-114.79 -53.74898,-201.38 -186.99998,-201.38 -28.082,0 -49.693,-1.2236 -73.593,10.719 l -109.94,0.25 -12.156,-31.25 c -0.35645,-0.82844 -0.84393,-1.5847 -1.4687,-2.2812 -0.01,-0.0104 -0.0213,-0.0206 -0.0312,-0.0312 -1.247,-1.3785 -2.9597,-2.4892 -4.7812,-3.2812 -0.61148,-0.26544 -1.2465,-0.49481 -1.875,-0.6875 -0.3049,-0.0931 -0.6329,-0.1746 -0.93749,-0.25 -0.31397,-0.0776 -0.62679,-0.16035 -0.93749,-0.21875 -0.93239,-0.1756 -1.8389,-0.255 -2.6875,-0.25 z"
       id="path2853"
       style="fill:#3278ff;fill-opacity:0.99607999"
       inkscape:connector-curvature="0" />
  </g>
</svg>
