<?xml version="1.0" encoding="UTF-8" standalone="no"?>
<!-- Created with Inkscape (http://www.inkscape.org/) -->

<svg
   xmlns:dc="http://purl.org/dc/elements/1.1/"
   xmlns:cc="http://creativecommons.org/ns#"
   xmlns:rdf="http://www.w3.org/1999/02/22-rdf-syntax-ns#"
   xmlns:svg="http://www.w3.org/2000/svg"
   xmlns="http://www.w3.org/2000/svg"
   xmlns:sodipodi="http://sodipodi.sourceforge.net/DTD/sodipodi-0.dtd"
   xmlns:inkscape="http://www.inkscape.org/namespaces/inkscape"
   width="32"
   height="16"
   id="svg4501"
   version="1.1"
   inkscape:version="0.48.4 r9939"
   sodipodi:docname="car-color.svg">
  <defs
     id="defs4503" />
  <sodipodi:namedview
     id="base"
     pagecolor="#ffffff"
     bordercolor="#666666"
     borderopacity="1.0"
     inkscape:pageopacity="0.0"
     inkscape:pageshadow="2"
     inkscape:zoom="22.4"
     inkscape:cx="13.790968"
     inkscape:cy="2.2010914"
     inkscape:document-units="px"
     inkscape:current-layer="layer1"
     showgrid="false"
     inkscape:window-width="1855"
     inkscape:window-height="1056"
     inkscape:window-x="65"
     inkscape:window-y="24"
     inkscape:window-maximized="1" />
  <metadata
     id="metadata4506">
    <rdf:RDF>
      <cc:Work
         rdf:about="">
        <dc:format>image/svg+xml</dc:format>
        <dc:type
           rdf:resource="http://purl.org/dc/dcmitype/StillImage" />
        <dc:title></dc:title>
      </cc:Work>
    </rdf:RDF>
  </metadata>
  <g
     inkscape:label="Layer 1"
     inkscape:groupmode="layer"
     id="layer1"
     transform="translate(0,-1036.3622)">
    <path
       d="m 18.585895,1036.6634 c -0.0503,3e-4 -0.15736,0.01 -0.2156,0.031 l -0.11666,0.05 0.28851,1.1947 -4.15991,0.01 c -2.59851,0.01 -5.5501201,-0.3834 -7.7635601,-0.3167 -2.21351,0.067 -5.07016,0.9333 -5.07016,0.9333 l -0.45619,0.126 c -0.64163002,0.1765 -0.85718002,3.2453 -0.85718002,5.5588 0,0.037 8.9e-4,0.075 0.001,0.1125 -1.5e-4,0.037 -0.001,0.075 -0.001,0.1125 0,2.3135 0.21556,5.3821 0.85718002,5.5587 l 0.45619,0.1261 c 0,0 2.85675,0.8664 5.07016,0.9332 2.21351,0.067 5.1651501,-0.3221 7.7635601,-0.3166 l 4.15991,0.01 -0.28851,1.1947 0.11666,0.05 c 0.0582,0.021 0.16531,0.031 0.2156,0.031 0.0283,3e-4 0.0585,-0 0.0896,-0.01 0.0104,-0 0.0208,-0.01 0.0312,-0.01 0.0102,-0 0.0211,-0.01 0.0312,-0.01 0.0209,-0.01 0.0421,-0.014 0.0625,-0.023 0.0607,-0.026 0.11779,-0.063 0.15936,-0.1094 3.3e-4,-4e-4 7.2e-4,-7e-4 10e-4,-10e-4 0.0208,-0.023 0.0371,-0.048 0.0489,-0.076 l 0.40516,-1.0416 3.6643,0.01 c 0.79659,0.3981 1.51688,0.3573 2.45285,0.3573 4.44123,0 6.25371,-2.8859 6.23271,-6.712 0,-0.026 -6.3e-4,-0.052 -0.001,-0.078 4e-4,-0.026 0.001,-0.052 0.001,-0.078 0.0209,-3.8259 -1.79145,-6.712 -6.23271,-6.712 -0.93597,0 -1.65626,-0.041 -2.45285,0.3573 l -3.6643,0.01 -0.40516,-1.0416 c -0.0119,-0.028 -0.0281,-0.053 -0.0489,-0.076 -3.4e-4,-3e-4 -7.1e-4,-7e-4 -10e-4,-10e-4 -0.0416,-0.046 -0.0987,-0.083 -0.15936,-0.1094 -0.0204,-0.01 -0.0416,-0.016 -0.0625,-0.023 -0.0102,-0 -0.0211,-0.01 -0.0312,-0.01 -0.0105,-0 -0.0209,-0 -0.0312,-0.01 -0.0311,-0.01 -0.0613,-0.01 -0.0896,-0.01 z"
       id="path2853"
       style="fill:#3278ff;fill-opacity:0.99607999"
       inkscape:connector-curvature="0" />
  </g>
</svg>
